<svg xmlns="http://www.w3.org/2000/svg" xmlns:xlink="http://www.w3.org/1999/xlink" id="Layer_1" x="0" y="0" enable-background="new 0 0 139.6 128" version="1.1" viewBox="0 0 139.6 128" xml:space="preserve"><style type="text/css">.st0{fill:#01b1f2}</style><path d="M130.6,55.4c-0.4,0-0.7,0-1.1,0.1c-4.6-5.4-13.1-9.9-24.9-13.1c3.5-13.3,3.5-24.1,0.1-30.5	c-0.6-1.1-1.3-2.1-2.1-3c-0.8-0.9-1.8-1.6-2.8-2.2c-2.1-1.2-4.6-1.8-7.4-1.6c-1,0.1-2.1,0.2-3.4,0.5c-6.9,1.7-15,7.1-23.3,15.5	c-0.4,0.4-0.8,0.7-1.1,1.1c-0.3,0.3-0.6,0.7-1,1c-2.3,2.5-4.5,5.1-6.6,7.7l-0.4,0.6c-0.3,0.4-0.6,0.7-0.8,1	c-1.4,1.8-2.8,3.7-4.3,5.8C50,38.7,48.5,38.8,47,39c-0.7,0.1-1.3,0.1-1.9,0.2c-0.4,0-0.9,0.1-1.3,0.2l-0.6,0.1	c-0.6,0.1-1.1,0.1-1.6,0.2l-4.4,0.8c-0.8,0.1-1.6,0.3-2.6,0.5c-0.4,0.1-0.7,0.2-1,0.2c-2.6-9.8-3.2-18.1-1.7-23.7	c0.9,0.3,1.8,0.5,2.8,0.5c4.8,0,8.7-3.7,8.9-8.3c0-0.2,0-0.4,0-0.7c0-1-0.1-1.9-0.5-2.9C41.8,2.4,38.4,0,34.5,0c-4.9,0-8.9,4-8.9,9	c0,2,0.6,3.8,1.8,5.4c-2.4,6.6-2,16.2,1.1,27.8h-0.1l0.1,0.3C10.4,47.4,0,55.3,0,64.4c0,9.1,10.4,17,28.5,21.9	c-2.9,10.7-3.4,19.7-1.7,26.3c-1.7,1.7-2.7,4-2.7,6.4c0,4.9,4,9,9,9c3.4,0,6.5-1.9,8-4.9c0.5-1,0.8-2.1,0.9-3.3c0-0.3,0-0.5,0-0.8	c0-5-4-9-9-9c-0.6,0-1.1,0.1-1.7,0.2c-1.1-5.8-0.3-14.1,2.3-23.6l0.4-1.3c0.4-1.5,0.9-3,1.4-4.5l0.4-1c0.9-2.5,1.9-5.2,3.1-7.9	c0.2-0.5,0.4-1,0.6-1.4c0.3,0.5,0.5,1,0.8,1.5c0.3,0.5,0.6,1.1,0.9,1.6l0.4,0.7c0.6,1.2,1.3,2.3,2,3.5c2.3,3.9,4.8,7.8,7.4,11.6	c2,3,4.2,5.9,6.3,8.5c0.5,0.7,1.1,1.3,1.6,2c1.5,1.9,3,3.6,4.6,5.3l1.3,1.3c0.4,0.4,0.7,0.8,1.1,1.1c13.4,13.6,26.2,19.1,34,14.5	c8-4.6,9.7-18,4.4-36.7c-0.1-0.5-0.2-1-0.4-1.5c-0.2-0.6-0.4-1.3-0.6-1.9l-0.2-0.8c-0.3-1-0.7-2.1-1.1-3.2l-0.2-0.7	c-0.4-1.2-0.8-2.3-1.3-3.6c-0.1-0.2-0.1-0.4-0.3-0.6l-0.3-0.6c-0.5-1.2-1-2.5-1.5-3.7c-0.6-1.4-1.2-2.9-1.9-4.3	c0.7-1.4,1.3-2.8,1.9-4.2l0.5-1.2c0.4-1,0.8-1.9,1.2-3c0.1-0.4,0.3-0.7,0.4-1c0.5-1.2,0.9-2.4,1.3-3.6c0.5-1.3,0.9-2.7,1.3-4	c0-0.1,0.1-0.1,0.1-0.2c9.8,2.6,17.3,6.3,21.4,10.4c-1.9,1.7-3,4.1-3,6.7c0,3,1.5,5.8,4,7.5c1,0.7,2.1,1.1,3.2,1.3	c0.6,0.1,1.2,0.2,1.8,0.2c5,0,9-4,9-9C139.6,59.5,135.5,55.4,130.6,55.4z M59.5,43.4L59.5,43.4c4.4-0.4,9.8-0.4,14.2,0	c2.9,0.2,5.7,0.6,8.4,1.1c-0.9,2.6-2,5.2-3.2,7.9c-1,2.1-2.1,4.1-3.3,6.3c-1.2,2.1-2.5,4.1-3.8,6c-1.7,2.4-3.4,4.7-5.3,6.7	c-1.7-2-3.5-4.2-5.2-6.7c-1.3-1.8-2.6-3.8-3.8-6c-1.2-2-2.3-4.1-3.3-6.3C53,49.8,52,47.2,51,44.5C53.8,44,56.6,43.6,59.5,43.4z M34.5,5.1c1.3,0,2.6,0.7,3.3,1.8c0.4,0.6,0.6,1.3,0.6,2l0,0.3c0,2.1-1.8,3.7-3.9,3.7c-0.7,0-1.2-0.2-1.8-0.5	c-0.7-0.4-1.2-0.9-1.6-1.7c-0.3-0.5-0.4-1-0.4-1.7C30.7,6.8,32.4,5.1,34.5,5.1z M31.9,115.4L31.9,115.4c0.4-0.2,0.8-0.2,1.2-0.2	c2.1,0,3.9,1.7,3.9,3.9l-0.1,0.4c-0.1,0.8-0.4,1.5-0.9,2.1c-0.7,0.9-1.8,1.3-2.9,1.3c-2.1,0-3.9-1.7-3.9-3.9c0-0.9,0.3-1.7,0.9-2.4	C30.5,116,31.2,115.6,31.9,115.4z M36.3,65.2c-1,2.2-2,4.5-2.9,6.7l-0.2,0.5c-0.1,0.3-0.2,0.6-0.4,0.9l-0.1,0.3	c-0.3,0.7-0.5,1.4-0.8,2.1l-0.2,0.6c-0.1,0.2-0.1,0.4-0.2,0.5L30,81.5C14.6,77.4,5.1,70.9,5.1,64.4c0-6.5,9.6-13,24.9-17.1l0.6,1.8	c0.2,0.7,0.4,1.3,0.7,2l0.1,0.4c0.4,1.2,0.9,2.4,1.4,3.8c0.5,1.4,1.1,2.7,1.7,4.1l0.3,0.8c0.6,1.3,1.2,2.7,1.9,4.2L36.3,65.2z M96.7,78.2l0.3,0.9c0.3,0.7,0.5,1.4,0.7,2.1c0.5,1.4,0.9,2.8,1.3,4.1c2.1,7.2,3.2,13.8,3.2,19.1c0,6.7-1.7,11.4-4.9,13.3	c-5.5,3.2-15.9-1.7-27.2-13c0.1-0.1,0.3-0.3,0.4-0.4l0.6-0.6c0.5-0.5,1-1.1,1.4-1.6l0.2-0.2c3.2-3.8,6.4-7.9,9.5-12.4	c2.6-3.8,5.1-7.7,7.4-11.6c0.8-1.3,1.5-2.6,2.2-4c0.6-1.1,1.2-2.2,1.8-3.3c0.1,0.3,0.3,0.7,0.4,1c0.3,0.6,0.5,1.2,0.7,1.7l0.1,0.2	c0.1,0.2,0.2,0.5,0.3,0.8c0.4,0.9,0.7,1.9,1.1,2.8C96.4,77.4,96.5,77.8,96.7,78.2z M99.7,41.2c-1.2-0.3-2.5-0.5-3.8-0.8	c-1.4-0.3-2.8-0.5-4.2-0.7c-1.9-0.3-3.9-0.6-5.9-0.8c-1.8-0.2-3.6-0.4-5.4-0.5c-4.2-0.4-8.9-0.6-13.7-0.6c-1,0-1.9,0-2.9,0	c-0.8,0-1.7,0-2.5,0.1c-0.7,0-1.3,0-1.9,0.1c-0.4,0-0.8,0-1.2,0.1c2.2-3,4.5-5.9,6.8-8.5l0.1-0.1c0.4-0.4,0.8-0.9,1.2-1.3	c0.7-0.8,1.4-1.6,2.1-2.3l1-1c7.3-7.5,14.6-12.5,20.3-14.1c0.9-0.3,1.8-0.4,2.7-0.5c2-0.2,3.6,0.1,5,0.9c0.7,0.4,1.3,0.9,1.9,1.6	c0.5,0.7,1,1.4,1.4,2.3C103,20.5,102.7,30,99.7,41.2z M130.8,68.3L130.8,68.3l-0.2,0c-0.7,0-1.4-0.2-2-0.6c-1.1-0.7-1.8-2-1.8-3.3	c0-1.3,0.7-2.6,1.8-3.3c0.6-0.4,1.3-0.6,2-0.6l0.3,0.1c2.1,0.1,3.7,1.8,3.7,3.9C134.5,66.5,132.9,68.2,130.8,68.3z" class="st0"/></svg>