<svg xmlns="http://www.w3.org/2000/svg" xmlns:xlink="http://www.w3.org/1999/xlink" id="Layer_1" x="0" y="0" enable-background="new 0 0 279.1 256" version="1.1" viewBox="0 0 279.1 256" xml:space="preserve"><path d="M261.2,110.9c-0.7,0-1.5,0.1-2.2,0.1c-9.2-10.8-26.3-19.8-49.7-26.1c7-26.5,7-48.1,0.1-61c-1.1-2.2-2.5-4.2-4.1-6	c-1.7-1.8-3.5-3.3-5.6-4.4c-4.2-2.5-9.2-3.5-14.7-3.2c-2,0.1-4.2,0.5-6.7,1c-13.8,3.3-29.9,14.1-46.6,31.1c-0.8,0.7-1.5,1.5-2.2,2.2	c-0.6,0.6-1.3,1.3-2,2.1c-4.6,4.9-9,10.1-13.2,15.4l-0.9,1.1c-0.6,0.7-1.1,1.4-1.6,2.1c-2.8,3.5-5.6,7.4-8.6,11.7	c-3.1,0.2-6.2,0.5-9.2,0.9c-1.3,0.1-2.6,0.3-3.8,0.5c-0.9,0.1-1.8,0.2-2.6,0.4L86.3,79c-1.1,0.1-2.2,0.3-3.3,0.5L74.3,81	c-1.6,0.3-3.2,0.6-5.2,1c-0.7,0.2-1.4,0.3-2.1,0.5c-5.2-19.6-6.4-36.3-3.5-47.5c1.8,0.6,3.7,0.9,5.6,0.9c9.5,0,17.4-7.4,17.9-16.6	C87,18.8,87,18.4,87,18c0-2-0.3-3.9-0.9-5.8C83.6,4.9,76.8,0,69.1,0c-9.9,0-17.9,8.1-17.9,18c0,3.9,1.3,7.7,3.6,10.7	c-4.8,13.1-4,32.3,2.2,55.6h-0.1L57,85c-36.3,9.8-57,25.7-57,43.9c0,18.2,20.8,34.1,57.1,43.9c-5.7,21.4-6.9,39.5-3.4,52.6	c-3.4,3.4-5.4,8-5.4,12.8c0,9.9,8.1,17.9,18,17.9c6.8,0,13-3.8,16-9.8c1-1.9,1.7-4.2,1.9-6.6c0.1-0.5,0.1-1,0.1-1.5	c0-9.9-8.1-18-18-18c-1.1,0-2.3,0.1-3.4,0.3c-2.3-11.6-0.7-28.3,4.6-47.2l0.8-2.6c0.9-3,1.8-5.9,2.8-8.9l0.7-2.1	c1.7-5,3.8-10.4,6.1-15.9c0.4-1,0.8-1.9,1.2-2.9c0.5,1,1.1,2.1,1.6,3.1c0.5,1.1,1.1,2.2,1.7,3.2l0.7,1.3c1.3,2.3,2.6,4.6,3.9,7	c4.6,7.8,9.5,15.7,14.7,23.2c4.1,6,8.4,11.7,12.7,17c1.1,1.4,2.1,2.7,3.2,3.9c3,3.7,6.1,7.3,9.2,10.6l2.5,2.7	c0.7,0.8,1.5,1.6,2.2,2.3c26.8,27.2,52.5,38.1,68.1,29c16.1-9.3,19.3-36.1,8.9-73.5c-0.2-1-0.5-1.9-0.8-2.9	c-0.4-1.3-0.8-2.6-1.2-3.9l-0.5-1.5c-0.7-2.1-1.4-4.2-2.1-6.4l-0.5-1.3c-0.8-2.3-1.7-4.7-2.7-7.2c-0.1-0.3-0.3-0.7-0.5-1.3l-0.5-1.3	c-1-2.5-2-4.9-3.1-7.4c-1.2-2.9-2.5-5.7-3.8-8.5c1.3-2.8,2.5-5.6,3.7-8.4l1-2.4c0.8-2,1.7-3.9,2.5-5.9c0.3-0.7,0.6-1.4,0.8-2.1	c0.9-2.4,1.8-4.8,2.6-7.1c1-2.7,1.9-5.4,2.7-7.9c0.1-0.1,0.1-0.3,0.2-0.4c19.5,5.2,34.6,12.5,42.9,20.7c-3.8,3.4-6,8.3-6,13.4	c0,6,3,11.6,8,15c2,1.3,4.2,2.2,6.3,2.6c1.2,0.3,2.3,0.4,3.5,0.4c9.9,0,18-8.1,18-17.9C279.1,118.9,271.1,110.9,261.2,110.9z M119,86.7L119,86.7c8.7-0.8,19.6-0.8,28.4,0c5.8,0.4,11.4,1.2,16.8,2.2c-1.8,5.2-4,10.5-6.5,15.7c-2,4.1-4.1,8.3-6.6,12.6	c-2.5,4.2-5,8.2-7.5,12c-3.4,4.8-6.9,9.3-10.5,13.5c-3.5-4-7-8.5-10.4-13.5c-2.6-3.7-5.1-7.7-7.6-12c-2.3-3.9-4.5-8.2-6.6-12.6	c-2.5-5.1-4.6-10.4-6.5-15.7C107.5,87.9,113.2,87.2,119,86.7z M69.1,10.2c2.7,0,5.1,1.3,6.5,3.6c0.8,1.2,1.2,2.5,1.2,3.9l-0.1,0.6	c-0.1,4.1-3.5,7.5-7.7,7.5c-1.3,0-2.5-0.3-3.6-1c-1.4-0.7-2.5-1.9-3.2-3.5c-0.5-1-0.8-2.1-0.8-3.3C61.4,13.7,64.8,10.2,69.1,10.2z M63.8,230.7l0.1,0c0.8-0.3,1.6-0.4,2.4-0.4c4.3,0,7.8,3.5,7.8,7.8l-0.1,0.9c-0.1,1.6-0.8,3-1.9,4.2c-1.5,1.7-3.6,2.7-5.8,2.7	c-4.3,0-7.8-3.5-7.8-7.8c0-1.7,0.6-3.4,1.8-4.8C61.1,232.1,62.4,231.1,63.8,230.7z M72.7,130.3c-2.1,4.5-4,8.9-5.8,13.3l-0.5,1.1	c-0.2,0.6-0.5,1.1-0.7,1.8l-0.2,0.5c-0.5,1.4-1,2.7-1.6,4.1l-0.5,1.3c-0.1,0.3-0.3,0.7-0.4,1l-3.2,9.5	c-30.7-8.3-49.7-21.3-49.7-34.1c0-12.9,19.2-26,49.7-34.2l1.2,3.7c0.4,1.3,0.9,2.7,1.4,4l0.2,0.8c0.8,2.3,1.7,4.7,2.8,7.5	c1.1,2.7,2.2,5.5,3.4,8.3l0.7,1.6c1.1,2.7,2.3,5.3,3.7,8.3L72.7,130.3z M193.4,156.4l0.6,1.7c0.5,1.4,1,2.7,1.4,4.2	c0.9,2.8,1.8,5.5,2.6,8.2c4.2,14.3,6.4,27.5,6.4,38.2c0,13.5-3.5,22.9-9.8,26.5c-11.1,6.5-31.8-3.5-54.4-26c0.2-0.3,0.5-0.6,0.8-0.9	l1.1-1.3c1-1.1,1.9-2.2,2.9-3.3l0.4-0.5c6.5-7.5,12.9-15.9,19.1-24.8c5.2-7.5,10.1-15.4,14.7-23.3c1.5-2.6,3-5.3,4.4-7.9	c1.2-2.2,2.4-4.4,3.6-6.7c0.3,0.7,0.6,1.3,0.8,2c0.5,1.2,1,2.4,1.4,3.5l0.2,0.5c0.2,0.5,0.4,1,0.6,1.6c0.8,1.9,1.5,3.7,2.2,5.6	C192.8,154.7,193.1,155.6,193.4,156.4z M199.3,82.5c-2.5-0.6-5-1.1-7.6-1.5c-2.8-0.5-5.6-1-8.4-1.5c-3.9-0.6-7.9-1.2-11.9-1.6	c-3.5-0.4-7.1-0.8-10.7-1.1c-8.4-0.7-17.8-1.1-27.3-1.1c-1.9,0-3.8,0-5.7,0.1c-1.7,0-3.3,0.1-4.9,0.1c-1.4,0-2.7,0.1-3.9,0.1	c-0.8,0-1.6,0.1-2.4,0.1c4.5-6.1,9.1-11.8,13.7-17l0.1-0.1c0.8-0.9,1.5-1.7,2.4-2.7c1.4-1.6,2.8-3.1,4.2-4.6l1.9-2	c14.7-15,29.1-25,40.7-28.3c1.7-0.5,3.6-0.9,5.3-1c4-0.3,7.2,0.3,9.9,1.8c1.3,0.8,2.6,1.9,3.8,3.3c1.1,1.3,2,2.9,2.7,4.5	C206,41,205.3,60,199.3,82.5z M261.6,136.6l-0.1,0l-0.3,0.1c-1.4,0-2.8-0.4-4.1-1.2c-2.3-1.5-3.6-3.9-3.6-6.6c0-2.7,1.4-5.1,3.6-6.6	c1.3-0.8,2.7-1.2,3.9-1.3l0.6,0.1c4.1,0.2,7.4,3.6,7.4,7.7C269,133,265.7,136.4,261.6,136.6z"/></svg>