<svg xmlns="http://www.w3.org/2000/svg" xmlns:xlink="http://www.w3.org/1999/xlink" id="Layer_1" x="0" y="0" enable-background="new 0 0 32.7 30" version="1.1" viewBox="0 0 32.7 30" xml:space="preserve"><style type="text/css">.st0{fill:#01b1f2}</style><path d="M30.6,13c-0.1,0-0.2,0-0.3,0c-1.1-1.3-3.1-2.3-5.8-3.1c0.8-3.1,0.8-5.6,0-7.1c-0.1-0.3-0.3-0.5-0.5-0.7	c-0.2-0.2-0.4-0.4-0.7-0.5c-0.5-0.3-1.1-0.4-1.7-0.4c-0.2,0-0.5,0.1-0.8,0.1C19.3,1.7,17.4,3,15.4,5c-0.1,0.1-0.2,0.2-0.3,0.3	c-0.1,0.1-0.1,0.2-0.2,0.2c-0.5,0.6-1.1,1.2-1.5,1.8l-0.1,0.1c-0.1,0.1-0.1,0.2-0.2,0.2c-0.3,0.4-0.7,0.9-1,1.4	c-0.4,0-0.7,0.1-1.1,0.1c-0.2,0-0.3,0-0.4,0.1c-0.1,0-0.2,0-0.3,0l-0.1,0c-0.1,0-0.3,0-0.4,0.1l-1,0.2c-0.2,0-0.4,0.1-0.6,0.1	c-0.1,0-0.2,0-0.2,0.1C7.2,7.4,7.1,5.4,7.4,4.1c0.2,0.1,0.4,0.1,0.7,0.1c1.1,0,2-0.9,2.1-1.9c0-0.1,0-0.1,0-0.2c0-0.2,0-0.5-0.1-0.7	C9.8,0.6,9,0,8.1,0C6.9,0,6,0.9,6,2.1C6,2.6,6.1,3,6.4,3.4C5.9,4.9,6,7.1,6.7,9.9h0l0,0.1C2.4,11.1,0,13,0,15.1c0,2.1,2.4,4,6.7,5.1	c-0.7,2.5-0.8,4.6-0.4,6.2c-0.4,0.4-0.6,0.9-0.6,1.5c0,1.2,0.9,2.1,2.1,2.1c0.8,0,1.5-0.4,1.9-1.2c0.1-0.2,0.2-0.5,0.2-0.8	c0-0.1,0-0.1,0-0.2c0-1.2-0.9-2.1-2.1-2.1c-0.1,0-0.3,0-0.4,0c-0.3-1.4-0.1-3.3,0.5-5.5L8,20c0.1-0.3,0.2-0.7,0.3-1l0.1-0.2	c0.2-0.6,0.4-1.2,0.7-1.9c0-0.1,0.1-0.2,0.1-0.3c0.1,0.1,0.1,0.2,0.2,0.4c0.1,0.1,0.1,0.3,0.2,0.4l0.1,0.2c0.2,0.3,0.3,0.5,0.5,0.8	c0.5,0.9,1.1,1.8,1.7,2.7c0.5,0.7,1,1.4,1.5,2c0.1,0.2,0.3,0.3,0.4,0.5c0.3,0.4,0.7,0.9,1.1,1.2l0.3,0.3c0.1,0.1,0.2,0.2,0.3,0.3	c3.1,3.2,6.2,4.5,8,3.4c1.9-1.1,2.3-4.2,1-8.6c0-0.1-0.1-0.2-0.1-0.3c0-0.2-0.1-0.3-0.1-0.5L24.2,19c-0.1-0.2-0.2-0.5-0.3-0.7	l-0.1-0.2c-0.1-0.3-0.2-0.5-0.3-0.8c0,0,0-0.1-0.1-0.2L23.4,17c-0.1-0.3-0.2-0.6-0.4-0.9c-0.1-0.3-0.3-0.7-0.4-1	c0.2-0.3,0.3-0.7,0.4-1l0.1-0.3c0.1-0.2,0.2-0.5,0.3-0.7c0-0.1,0.1-0.2,0.1-0.2c0.1-0.3,0.2-0.6,0.3-0.8c0.1-0.3,0.2-0.6,0.3-0.9	c0,0,0,0,0-0.1c2.3,0.6,4.1,1.5,5,2.4c-0.4,0.4-0.7,1-0.7,1.6c0,0.7,0.4,1.4,0.9,1.8c0.2,0.2,0.5,0.3,0.7,0.3c0.1,0,0.3,0,0.4,0	c1.2,0,2.1-0.9,2.1-2.1C32.7,13.9,31.8,13,30.6,13z M13.9,10.2L13.9,10.2c1-0.1,2.3-0.1,3.3,0c0.7,0.1,1.3,0.1,2,0.3	c-0.2,0.6-0.5,1.2-0.8,1.8c-0.2,0.5-0.5,1-0.8,1.5c-0.3,0.5-0.6,1-0.9,1.4c-0.4,0.6-0.8,1.1-1.2,1.6c-0.4-0.5-0.8-1-1.2-1.6	c-0.3-0.4-0.6-0.9-0.9-1.4c-0.3-0.5-0.5-1-0.8-1.5c-0.3-0.6-0.5-1.2-0.8-1.8C12.6,10.3,13.3,10.2,13.9,10.2z M8.1,1.2	c0.3,0,0.6,0.2,0.8,0.4C9,1.8,9,1.9,9,2.1l0,0.1C9,2.6,8.6,3,8.1,3C7.9,3,7.8,3,7.7,2.9C7.5,2.8,7.4,2.7,7.3,2.5	C7.2,2.4,7.2,2.3,7.2,2.1C7.2,1.6,7.6,1.2,8.1,1.2z M7.5,27L7.5,27C7.6,27,7.7,27,7.8,27c0.5,0,0.9,0.4,0.9,0.9l0,0.1	c0,0.2-0.1,0.4-0.2,0.5c-0.2,0.2-0.4,0.3-0.7,0.3c-0.5,0-0.9-0.4-0.9-0.9c0-0.2,0.1-0.4,0.2-0.6C7.2,27.2,7.3,27.1,7.5,27z M8.5,15.3c-0.2,0.5-0.5,1-0.7,1.6L7.8,17c0,0.1-0.1,0.1-0.1,0.2l0,0.1c-0.1,0.2-0.1,0.3-0.2,0.5l-0.1,0.1c0,0,0,0.1,0,0.1L7,19.1	c-3.6-1-5.8-2.5-5.8-4c0-1.5,2.3-3,5.8-4l0.1,0.4c0.1,0.2,0.1,0.3,0.2,0.5l0,0.1c0.1,0.3,0.2,0.6,0.3,0.9c0.1,0.3,0.3,0.6,0.4,1	l0.1,0.2c0.1,0.3,0.3,0.6,0.4,1L8.5,15.3z M22.7,18.3l0.1,0.2c0.1,0.2,0.1,0.3,0.2,0.5c0.1,0.3,0.2,0.6,0.3,1	c0.5,1.7,0.7,3.2,0.7,4.5c0,1.6-0.4,2.7-1.1,3.1c-1.3,0.8-3.7-0.4-6.4-3c0,0,0.1-0.1,0.1-0.1l0.1-0.1c0.1-0.1,0.2-0.3,0.3-0.4l0-0.1	c0.8-0.9,1.5-1.9,2.2-2.9c0.6-0.9,1.2-1.8,1.7-2.7c0.2-0.3,0.3-0.6,0.5-0.9c0.1-0.3,0.3-0.5,0.4-0.8c0,0.1,0.1,0.2,0.1,0.2	c0.1,0.1,0.1,0.3,0.2,0.4l0,0.1c0,0.1,0,0.1,0.1,0.2c0.1,0.2,0.2,0.4,0.3,0.7C22.6,18.1,22.6,18.2,22.7,18.3z M23.4,9.7	c-0.3-0.1-0.6-0.1-0.9-0.2c-0.3-0.1-0.7-0.1-1-0.2c-0.5-0.1-0.9-0.1-1.4-0.2c-0.4,0-0.8-0.1-1.3-0.1c-1-0.1-2.1-0.1-3.2-0.1	c-0.2,0-0.4,0-0.7,0c-0.2,0-0.4,0-0.6,0c-0.2,0-0.3,0-0.5,0c-0.1,0-0.2,0-0.3,0c0.5-0.7,1.1-1.4,1.6-2l0,0c0.1-0.1,0.2-0.2,0.3-0.3	c0.2-0.2,0.3-0.4,0.5-0.5l0.2-0.2C18,4.1,19.7,2.9,21,2.5c0.2-0.1,0.4-0.1,0.6-0.1c0.5,0,0.8,0,1.2,0.2C23,2.7,23.1,2.8,23.3,3	c0.1,0.2,0.2,0.3,0.3,0.5C24.1,4.8,24.1,7,23.4,9.7z M30.7,16L30.7,16L30.7,16c-0.2,0-0.4,0-0.5-0.1c-0.3-0.2-0.4-0.5-0.4-0.8	c0-0.3,0.2-0.6,0.4-0.8c0.1-0.1,0.3-0.1,0.5-0.1l0.1,0c0.5,0,0.9,0.4,0.9,0.9C31.5,15.6,31.1,16,30.7,16z" class="st0"/></svg>