<svg xmlns="http://www.w3.org/2000/svg" xmlns:xlink="http://www.w3.org/1999/xlink" id="Layer_1" x="0" y="0" enable-background="new 0 0 558.3 512" version="1.1" viewBox="0 0 558.3 512" xml:space="preserve"><path d="M522.3,221.8c-1.5,0-2.9,0.1-4.4,0.3c-18.3-21.6-52.6-39.5-99.5-52.2c14-53,14.1-96.3,0.3-121.9c-2.3-4.5-5.1-8.5-8.3-11.9	c-3.3-3.6-7.1-6.6-11.1-8.8c-8.4-4.9-18.3-7.1-29.4-6.4c-4.1,0.2-8.5,0.9-13.5,2.1c-27.7,6.7-59.9,28.3-93.1,62.2	c-1.6,1.5-3.1,2.9-4.4,4.4c-1.3,1.3-2.5,2.6-4,4.2c-9.1,9.9-18,20.2-26.4,30.8l-1.7,2.2c-1.1,1.4-2.2,2.8-3.3,4.2	c-5.5,7.1-11.2,14.8-17.3,23.4c-6.3,0.5-12.5,1-18.4,1.9c-2.6,0.2-5.3,0.6-7.6,0.9c-1.8,0.2-3.5,0.4-5.3,0.7l-2.4,0.3	c-2.3,0.2-4.5,0.6-6.6,1l-17.5,3c-3.3,0.5-6.5,1.2-10.5,2c-1.4,0.3-2.8,0.7-4.2,1c-10.4-39.2-12.8-72.5-7-95	c3.6,1.2,7.4,1.8,11.3,1.8c19,0,34.7-14.8,35.8-33.2c0.2-0.9,0.2-1.7,0.2-2.7c0-3.9-0.6-7.7-1.9-11.7C167.2,9.7,153.5,0,138.2,0	c-19.7,0-35.8,16.1-35.8,35.9c0,7.8,2.5,15.3,7.2,21.4c-9.5,26.3-8,64.6,4.3,111.3h-0.3l0.4,1.3C41.5,189.5,0,221.4,0,257.7	c0,36.3,41.5,68.2,114.2,87.8c-11.4,42.7-13.8,78.9-6.9,105.1c-6.9,6.8-10.7,15.9-10.7,25.5c0,19.8,16.1,35.9,35.9,35.9	c13.6,0,25.9-7.6,32-19.7c2.1-3.8,3.4-8.5,3.7-13.2c0.2-1,0.2-2.1,0.2-3c0-19.8-16.1-35.9-35.9-35.9c-2.3,0-4.5,0.2-6.7,0.7	c-4.5-23.3-1.3-56.5,9.2-94.5l1.5-5.2c1.7-5.9,3.6-11.9,5.7-17.9l1.4-4.2c3.5-10.1,7.6-20.7,12.2-31.7c0.8-1.9,1.6-3.9,2.5-5.8	c1.1,2.1,2.2,4.1,3.2,6.2c1.1,2.2,2.2,4.3,3.4,6.5l1.4,2.6c2.6,4.7,5.2,9.3,7.8,13.9c9.1,15.7,19,31.3,29.4,46.5	c8.2,11.9,16.7,23.4,25.3,34.1c2.1,2.7,4.3,5.3,6.4,7.8c6,7.4,12.2,14.5,18.5,21.2l5,5.3c1.4,1.5,3,3.1,4.4,4.5	c53.6,54.5,105,76.3,136.2,58c32.2-18.5,38.7-72.1,17.8-147c-0.5-1.9-0.9-3.8-1.5-5.8c-0.7-2.6-1.5-5.1-2.4-7.8l-0.9-3.1	c-1.3-4.1-2.7-8.5-4.3-12.8l-0.9-2.6c-1.6-4.7-3.4-9.4-5.3-14.4c-0.3-0.7-0.6-1.4-1-2.6l-1-2.6c-2-4.9-4-9.9-6.2-14.8	c-2.5-5.7-5-11.4-7.6-17.1c2.6-5.7,5.1-11.2,7.4-16.7l2-4.7c1.7-3.9,3.3-7.8,4.9-11.8c0.6-1.4,1.2-2.9,1.6-4.1	c1.9-4.8,3.6-9.5,5.3-14.2c1.9-5.4,3.8-10.9,5.3-15.9c0.1-0.3,0.2-0.6,0.3-0.9c39.1,10.5,69.2,25,85.8,41.4	c-7.6,6.8-12,16.5-12,26.9c0,12,6,23.2,16.1,29.9c4,2.6,8.5,4.4,12.7,5.1c2.3,0.5,4.6,0.8,7,0.8c19.8,0,35.9-16.1,35.9-35.9	C558.3,237.9,542.2,221.8,522.3,221.8z M237.9,173.5L237.9,173.5c17.4-1.5,39.2-1.5,56.8,0c11.5,0.9,22.8,2.4,33.6,4.4	c-3.6,10.4-7.9,21-12.9,31.5c-3.9,8.3-8.3,16.5-13.2,25.2c-4.9,8.4-10,16.5-15,23.9c-6.7,9.6-13.8,18.7-21,26.9	c-7-8-13.9-17-20.7-26.9c-5.1-7.4-10.2-15.4-15.2-23.9c-4.6-7.9-9-16.3-13.2-25.2c-4.9-10.2-9.2-20.7-12.9-31.5	C215,175.8,226.4,174.4,237.9,173.5z M138.2,20.4c5.3,0,10.2,2.7,13.1,7.2c1.5,2.4,2.4,5.1,2.5,7.9l-0.1,1.1	c-0.2,8.2-7.1,14.9-15.4,14.9c-2.6,0-5-0.6-7.3-2c-2.7-1.4-5-3.8-6.5-6.9c-1.1-1.9-1.6-4.2-1.6-6.7	C122.8,27.3,129.7,20.4,138.2,20.4z M127.6,461.4l0.2-0.1c1.5-0.5,3.1-0.8,4.7-0.8c8.6,0,15.5,7,15.5,15.6l-0.2,1.7	c-0.3,3.1-1.6,6.1-3.8,8.4c-2.9,3.4-7.1,5.4-11.6,5.4c-8.6,0-15.6-7-15.6-15.5c0-3.5,1.1-6.7,3.5-9.6	C122.1,464.1,124.7,462.3,127.6,461.4z M145.3,260.6c-4.1,8.9-7.9,17.8-11.5,26.7l-0.9,2.2c-0.5,1.1-0.9,2.2-1.5,3.6l-0.4,1.1	c-1.1,2.8-2.1,5.5-3.1,8.2l-0.9,2.5c-0.3,0.7-0.5,1.4-0.7,2.1l-6.5,19c-61.5-16.5-99.5-42.5-99.5-68.3c0-25.9,38.4-52,99.5-68.4	l2.4,7.4c0.9,2.7,1.7,5.3,2.7,8.1l0.5,1.5c1.6,4.7,3.4,9.4,5.6,15.1c2.1,5.5,4.4,11,6.8,16.6l1.3,3.2c2.3,5.3,4.7,10.7,7.5,16.7	L145.3,260.6z M386.8,312.8l1.3,3.5c1,2.7,1.9,5.4,2.8,8.3c1.9,5.6,3.6,11.1,5.2,16.5c8.3,28.6,12.7,55,12.7,76.4	c0,27-6.9,45.8-19.6,53c-22.2,13-63.7-6.9-108.8-51.9c0.5-0.6,1-1.1,1.5-1.7l2.2-2.5c2-2.2,3.8-4.4,5.8-6.6l0.8-0.9	c13-15,25.8-31.7,38.1-49.6c10.4-15.1,20.3-30.7,29.4-46.5c3-5.3,6-10.5,8.9-15.9c2.4-4.4,4.8-8.9,7.1-13.4c0.6,1.3,1.1,2.6,1.7,3.9	c1,2.4,2,4.7,2.9,7l0.4,0.9c0.4,1,0.8,1.9,1.3,3.2c1.6,3.8,3,7.5,4.4,11.2C385.6,309.4,386.2,311.1,386.8,312.8z M398.6,164.9	c-5-1.1-10-2.1-15.1-3c-5.5-1.1-11.2-2-16.9-2.9c-7.7-1.3-15.7-2.3-23.7-3.2c-7-0.8-14.2-1.5-21.5-2.1c-16.9-1.5-35.6-2.2-54.7-2.2	c-3.8,0-7.6,0.1-11.5,0.1c-3.3,0-6.6,0.1-9.8,0.2c-2.7,0-5.4,0.1-7.8,0.2c-1.6,0.1-3.2,0.1-4.9,0.2c9-12.1,18.2-23.5,27.4-33.9	l0.2-0.3c1.5-1.7,3.1-3.5,4.8-5.3c2.9-3.2,5.6-6.2,8.5-9.2l3.8-3.9c29.4-29.9,58.3-50,81.3-56.5c3.4-1,7.1-1.7,10.6-2	c7.9-0.7,14.4,0.5,19.8,3.6c2.7,1.6,5.2,3.7,7.6,6.5c2.1,2.7,4,5.8,5.5,9.1C412.1,82,410.7,120,398.6,164.9z M523.2,273.1l-0.3-0.1	l-0.6,0.2c-2.8,0-5.7-0.8-8.1-2.3c-4.6-2.9-7.3-7.9-7.3-13.2c0-5.3,2.7-10.3,7.2-13.2c2.5-1.6,5.4-2.4,7.9-2.5l1.1,0.2	c8.2,0.4,14.7,7.1,14.7,15.4C537.9,266,531.4,272.7,523.2,273.1z"/></svg>