<svg xmlns="http://www.w3.org/2000/svg" xmlns:xlink="http://www.w3.org/1999/xlink" id="Layer_1" x="0" y="0" enable-background="new 0 0 65.4 60" version="1.1" viewBox="0 0 65.4 60" xml:space="preserve"><path d="M61.2,26c-0.2,0-0.3,0-0.5,0c-2.1-2.5-6.2-4.6-11.7-6.1c1.6-6.2,1.6-11.3,0-14.3c-0.3-0.5-0.6-1-1-1.4	c-0.4-0.4-0.8-0.8-1.3-1c-1-0.6-2.1-0.8-3.4-0.8c-0.5,0-1,0.1-1.6,0.2c-3.2,0.8-7,3.3-10.9,7.3c-0.2,0.2-0.4,0.3-0.5,0.5	c-0.1,0.1-0.3,0.3-0.5,0.5c-1.1,1.2-2.1,2.4-3.1,3.6l-0.2,0.3c-0.1,0.2-0.3,0.3-0.4,0.5c-0.6,0.8-1.3,1.7-2,2.7	c-0.7,0.1-1.5,0.1-2.2,0.2c-0.3,0-0.6,0.1-0.9,0.1c-0.2,0-0.4,0-0.6,0.1l-0.3,0c-0.3,0-0.5,0.1-0.8,0.1L17.4,19	c-0.4,0.1-0.8,0.1-1.2,0.2c-0.2,0-0.3,0.1-0.5,0.1c-1.2-4.6-1.5-8.5-0.8-11.1c0.4,0.1,0.9,0.2,1.3,0.2c2.2,0,4.1-1.7,4.2-3.9	c0-0.1,0-0.2,0-0.3c0-0.5-0.1-0.9-0.2-1.4C19.6,1.1,18,0,16.2,0C13.9,0,12,1.9,12,4.2c0,0.9,0.3,1.8,0.8,2.5	c-1.1,3.1-0.9,7.6,0.5,13h0l0,0.2C4.9,22.2,0,25.9,0,30.2c0,4.3,4.9,8,13.4,10.3c-1.3,5-1.6,9.2-0.8,12.3c-0.8,0.8-1.3,1.9-1.3,3	c0,2.3,1.9,4.2,4.2,4.2c1.6,0,3-0.9,3.8-2.3c0.2-0.4,0.4-1,0.4-1.5c0-0.1,0-0.2,0-0.4c0-2.3-1.9-4.2-4.2-4.2c-0.3,0-0.5,0-0.8,0.1	c-0.5-2.7-0.2-6.6,1.1-11.1L16,40c0.2-0.7,0.4-1.4,0.7-2.1l0.2-0.5c0.4-1.2,0.9-2.4,1.4-3.7c0.1-0.2,0.2-0.5,0.3-0.7	c0.1,0.2,0.3,0.5,0.4,0.7c0.1,0.3,0.3,0.5,0.4,0.8l0.2,0.3c0.3,0.5,0.6,1.1,0.9,1.6c1.1,1.8,2.2,3.7,3.4,5.4c1,1.4,2,2.7,3,4	c0.3,0.3,0.5,0.6,0.8,0.9c0.7,0.9,1.4,1.7,2.2,2.5l0.6,0.6c0.2,0.2,0.3,0.4,0.5,0.5c6.3,6.4,12.3,8.9,16,6.8	c3.8-2.2,4.5-8.5,2.1-17.2c-0.1-0.2-0.1-0.4-0.2-0.7c-0.1-0.3-0.2-0.6-0.3-0.9L48.3,38c-0.2-0.5-0.3-1-0.5-1.5l-0.1-0.3	c-0.2-0.5-0.4-1.1-0.6-1.7c0-0.1-0.1-0.2-0.1-0.3l-0.1-0.3c-0.2-0.6-0.5-1.2-0.7-1.7c-0.3-0.7-0.6-1.3-0.9-2c0.3-0.7,0.6-1.3,0.9-2	l0.2-0.6c0.2-0.5,0.4-0.9,0.6-1.4c0.1-0.2,0.1-0.3,0.2-0.5c0.2-0.6,0.4-1.1,0.6-1.7c0.2-0.6,0.4-1.3,0.6-1.9c0,0,0-0.1,0-0.1	c4.6,1.2,8.1,2.9,10.1,4.9C57.5,27.8,57,29,57,30.2c0,1.4,0.7,2.7,1.9,3.5c0.5,0.3,1,0.5,1.5,0.6c0.3,0.1,0.5,0.1,0.8,0.1	c2.3,0,4.2-1.9,4.2-4.2C65.4,27.9,63.5,26,61.2,26z M27.9,20.3L27.9,20.3c2-0.2,4.6-0.2,6.7,0c1.4,0.1,2.7,0.3,3.9,0.5	c-0.4,1.2-0.9,2.5-1.5,3.7c-0.5,1-1,1.9-1.5,2.9c-0.6,1-1.2,1.9-1.8,2.8c-0.8,1.1-1.6,2.2-2.5,3.2c-0.8-0.9-1.6-2-2.4-3.2	c-0.6-0.9-1.2-1.8-1.8-2.8c-0.5-0.9-1.1-1.9-1.5-3c-0.6-1.2-1.1-2.4-1.5-3.7C25.2,20.6,26.5,20.4,27.9,20.3z M16.2,2.4	c0.6,0,1.2,0.3,1.5,0.8C17.9,3.5,18,3.8,18,4.2l0,0.1c0,1-0.8,1.8-1.8,1.8c-0.3,0-0.6-0.1-0.9-0.2C15,5.6,14.8,5.4,14.6,5	c-0.1-0.2-0.2-0.5-0.2-0.8C14.4,3.2,15.2,2.4,16.2,2.4z M14.9,54.1L14.9,54.1c0.2-0.1,0.4-0.1,0.6-0.1c1,0,1.8,0.8,1.8,1.8l0,0.2	c0,0.4-0.2,0.7-0.4,1c-0.3,0.4-0.8,0.6-1.4,0.6c-1,0-1.8-0.8-1.8-1.8c0-0.4,0.1-0.8,0.4-1.1C14.3,54.4,14.6,54.2,14.9,54.1z M17,30.5c-0.5,1-0.9,2.1-1.4,3.1l-0.1,0.3c-0.1,0.1-0.1,0.3-0.2,0.4l0,0.1c-0.1,0.3-0.2,0.6-0.4,1l-0.1,0.3c0,0.1-0.1,0.2-0.1,0.2	L14,38.2c-7.2-1.9-11.7-5-11.7-8c0-3,4.5-6.1,11.7-8l0.3,0.9c0.1,0.3,0.2,0.6,0.3,0.9l0.1,0.2c0.2,0.5,0.4,1.1,0.7,1.8	c0.3,0.6,0.5,1.3,0.8,1.9l0.2,0.4c0.3,0.6,0.5,1.2,0.9,2L17,30.5z M45.3,36.7l0.1,0.4c0.1,0.3,0.2,0.6,0.3,1	c0.2,0.7,0.4,1.3,0.6,1.9c1,3.4,1.5,6.5,1.5,9c0,3.2-0.8,5.4-2.3,6.2c-2.6,1.5-7.5-0.8-12.7-6.1c0.1-0.1,0.1-0.1,0.2-0.2l0.3-0.3	c0.2-0.3,0.4-0.5,0.7-0.8l0.1-0.1c1.5-1.8,3-3.7,4.5-5.8c1.2-1.8,2.4-3.6,3.4-5.4c0.4-0.6,0.7-1.2,1-1.9c0.3-0.5,0.6-1,0.8-1.6	c0.1,0.2,0.1,0.3,0.2,0.5c0.1,0.3,0.2,0.6,0.3,0.8l0,0.1c0,0.1,0.1,0.2,0.1,0.4c0.2,0.4,0.3,0.9,0.5,1.3	C45.2,36.3,45.3,36.5,45.3,36.7z M46.7,19.3c-0.6-0.1-1.2-0.2-1.8-0.4c-0.6-0.1-1.3-0.2-2-0.3c-0.9-0.1-1.8-0.3-2.8-0.4	c-0.8-0.1-1.7-0.2-2.5-0.2c-2-0.2-4.2-0.3-6.4-0.3c-0.4,0-0.9,0-1.3,0c-0.4,0-0.8,0-1.1,0c-0.3,0-0.6,0-0.9,0c-0.2,0-0.4,0-0.6,0	c1.1-1.4,2.1-2.8,3.2-4l0,0c0.2-0.2,0.4-0.4,0.6-0.6c0.3-0.4,0.7-0.7,1-1.1l0.4-0.5c3.4-3.5,6.8-5.9,9.5-6.6	c0.4-0.1,0.8-0.2,1.2-0.2c0.9-0.1,1.7,0.1,2.3,0.4c0.3,0.2,0.6,0.4,0.9,0.8c0.3,0.3,0.5,0.7,0.6,1.1C48.3,9.6,48.1,14.1,46.7,19.3z M61.3,32L61.3,32l-0.1,0c-0.3,0-0.7-0.1-0.9-0.3c-0.5-0.3-0.9-0.9-0.9-1.5c0-0.6,0.3-1.2,0.8-1.5c0.3-0.2,0.6-0.3,0.9-0.3l0.1,0	c1,0,1.7,0.8,1.7,1.8C63,31.2,62.3,32,61.3,32z"/></svg>