<svg xmlns="http://www.w3.org/2000/svg" xmlns:xlink="http://www.w3.org/1999/xlink" id="Layer_1" x="0" y="0" enable-background="new 0 0 98.1 90" version="1.1" viewBox="0 0 98.1 90" xml:space="preserve"><style type="text/css">.st0{fill:#01b1f2}</style><path d="M91.8,39c-0.3,0-0.5,0-0.8,0c-3.2-3.8-9.2-6.9-17.5-9.2C76,20.5,76,12.9,73.6,8.4c-0.4-0.8-0.9-1.5-1.5-2.1	c-0.6-0.6-1.2-1.2-2-1.5C68.7,3.9,67,3.5,65,3.6c-0.7,0-1.5,0.2-2.4,0.4c-4.9,1.2-10.5,5-16.4,10.9c-0.3,0.3-0.5,0.5-0.8,0.8	c-0.2,0.2-0.4,0.5-0.7,0.7c-1.6,1.7-3.2,3.6-4.6,5.4l-0.3,0.4c-0.2,0.2-0.4,0.5-0.6,0.7c-1,1.2-2,2.6-3,4.1	c-1.1,0.1-2.2,0.2-3.2,0.3c-0.5,0-0.9,0.1-1.3,0.2c-0.3,0-0.6,0.1-0.9,0.1l-0.4,0.1c-0.4,0-0.8,0.1-1.2,0.2l-3.1,0.5	c-0.6,0.1-1.1,0.2-1.8,0.4c-0.3,0.1-0.5,0.1-0.7,0.2c-1.8-6.9-2.3-12.8-1.2-16.7c0.6,0.2,1.3,0.3,2,0.3c3.3,0,6.1-2.6,6.3-5.8	c0-0.2,0-0.3,0-0.5c0-0.7-0.1-1.4-0.3-2C29.4,1.7,27,0,24.3,0C20.8,0,18,2.8,18,6.3c0,1.4,0.4,2.7,1.3,3.8	c-1.7,4.6-1.4,11.4,0.8,19.6H20l0.1,0.2c-12.7,3.4-20,9-20,15.4c0,6.4,7.3,12,20.1,15.4c-2,7.5-2.4,13.9-1.2,18.5	C17.7,80.4,17,82,17,83.7c0,3.5,2.8,6.3,6.3,6.3c2.4,0,4.6-1.3,5.6-3.5c0.4-0.7,0.6-1.5,0.7-2.3c0-0.2,0-0.4,0-0.5	c0-3.5-2.8-6.3-6.3-6.3c-0.4,0-0.8,0-1.2,0.1c-0.8-4.1-0.2-9.9,1.6-16.6L24,60c0.3-1,0.6-2.1,1-3.1l0.3-0.7c0.6-1.8,1.3-3.6,2.1-5.6	c0.1-0.3,0.3-0.7,0.4-1c0.2,0.4,0.4,0.7,0.6,1.1c0.2,0.4,0.4,0.8,0.6,1.1l0.3,0.5c0.5,0.8,0.9,1.6,1.4,2.5c1.6,2.8,3.3,5.5,5.2,8.2	c1.4,2.1,2.9,4.1,4.4,6c0.4,0.5,0.8,0.9,1.1,1.4c1,1.3,2.1,2.6,3.2,3.7l0.9,0.9c0.3,0.3,0.5,0.5,0.8,0.8	c9.4,9.6,18.5,13.4,23.9,10.2c5.7-3.3,6.8-12.7,3.1-25.8c-0.1-0.3-0.2-0.7-0.3-1c-0.1-0.5-0.3-0.9-0.4-1.4l-0.2-0.5	c-0.2-0.7-0.5-1.5-0.8-2.2l-0.2-0.5c-0.3-0.8-0.6-1.6-0.9-2.5c-0.1-0.1-0.1-0.2-0.2-0.5l-0.2-0.5c-0.4-0.9-0.7-1.7-1.1-2.6	c-0.4-1-0.9-2-1.3-3c0.5-1,0.9-2,1.3-2.9l0.3-0.8c0.3-0.7,0.6-1.4,0.9-2.1c0.1-0.3,0.2-0.5,0.3-0.7c0.3-0.8,0.6-1.7,0.9-2.5	c0.3-0.9,0.7-1.9,0.9-2.8c0-0.1,0-0.1,0.1-0.2c6.9,1.8,12.2,4.4,15.1,7.3c-1.3,1.2-2.1,2.9-2.1,4.7c0,2.1,1.1,4.1,2.8,5.3	c0.7,0.5,1.5,0.8,2.2,0.9c0.4,0.1,0.8,0.1,1.2,0.1c3.5,0,6.3-2.8,6.3-6.3C98.1,41.8,95.3,39,91.8,39z M41.8,30.5L41.8,30.5	c3.1-0.3,6.9-0.3,10,0c2,0.2,4,0.4,5.9,0.8c-0.6,1.8-1.4,3.7-2.3,5.5c-0.7,1.5-1.5,2.9-2.3,4.4c-0.9,1.5-1.8,2.9-2.6,4.2	c-1.2,1.7-2.4,3.3-3.7,4.7c-1.2-1.4-2.4-3-3.6-4.7c-0.9-1.3-1.8-2.7-2.7-4.2c-0.8-1.4-1.6-2.9-2.3-4.4c-0.9-1.8-1.6-3.6-2.3-5.5	C37.8,30.9,39.8,30.6,41.8,30.5z M24.3,3.6c0.9,0,1.8,0.5,2.3,1.3C26.9,5.3,27,5.7,27,6.2l0,0.2C27,7.9,25.8,9,24.3,9	c-0.5,0-0.9-0.1-1.3-0.3c-0.5-0.3-0.9-0.7-1.1-1.2c-0.2-0.3-0.3-0.7-0.3-1.2C21.6,4.8,22.8,3.6,24.3,3.6z M22.4,81.1L22.4,81.1	C22.7,81,23,81,23.3,81c1.5,0,2.7,1.2,2.7,2.7l0,0.3c0,0.5-0.3,1.1-0.7,1.5c-0.5,0.6-1.3,0.9-2,0.9c-1.5,0-2.7-1.2-2.7-2.7	c0-0.6,0.2-1.2,0.6-1.7C21.5,81.6,21.9,81.3,22.4,81.1z M25.5,45.8c-0.7,1.6-1.4,3.1-2,4.7l-0.2,0.4c-0.1,0.2-0.2,0.4-0.3,0.6	L23,51.7c-0.2,0.5-0.4,1-0.5,1.4l-0.2,0.4c0,0.1-0.1,0.3-0.1,0.4l-1.1,3.3c-10.8-2.9-17.5-7.5-17.5-12c0-4.5,6.8-9.1,17.5-12	l0.4,1.3c0.2,0.5,0.3,0.9,0.5,1.4l0.1,0.3c0.3,0.8,0.6,1.7,1,2.6c0.4,1,0.8,1.9,1.2,2.9l0.2,0.6c0.4,0.9,0.8,1.9,1.3,2.9L25.5,45.8z M68,55l0.2,0.6c0.2,0.5,0.3,1,0.5,1.5c0.3,1,0.6,1.9,0.9,2.9c1.5,5,2.2,9.7,2.2,13.4c0,4.7-1.2,8.1-3.4,9.3	c-3.9,2.3-11.2-1.2-19.1-9.1c0.1-0.1,0.2-0.2,0.3-0.3l0.4-0.4c0.3-0.4,0.7-0.8,1-1.2l0.1-0.2c2.3-2.6,4.5-5.6,6.7-8.7	c1.8-2.7,3.6-5.4,5.2-8.2c0.5-0.9,1-1.9,1.6-2.8c0.4-0.8,0.8-1.6,1.3-2.4c0.1,0.2,0.2,0.5,0.3,0.7c0.2,0.4,0.3,0.8,0.5,1.2l0.1,0.2	c0.1,0.2,0.1,0.3,0.2,0.6c0.3,0.7,0.5,1.3,0.8,2C67.8,54.4,67.9,54.7,68,55z M70.1,29c-0.9-0.2-1.8-0.4-2.7-0.5c-1-0.2-2-0.3-3-0.5	c-1.4-0.2-2.8-0.4-4.2-0.6c-1.2-0.1-2.5-0.3-3.8-0.4c-3-0.3-6.3-0.4-9.6-0.4c-0.7,0-1.3,0-2,0c-0.6,0-1.2,0-1.7,0	c-0.5,0-0.9,0-1.4,0c-0.3,0-0.6,0-0.9,0c1.6-2.1,3.2-4.1,4.8-6l0,0c0.3-0.3,0.5-0.6,0.8-0.9c0.5-0.6,1-1.1,1.5-1.6l0.7-0.7	c5.2-5.3,10.2-8.8,14.3-9.9c0.6-0.2,1.3-0.3,1.9-0.4c1.4-0.1,2.5,0.1,3.5,0.6c0.5,0.3,0.9,0.7,1.3,1.1c0.4,0.5,0.7,1,1,1.6	C72.4,14.4,72.2,21.1,70.1,29z M92,48L92,48l-0.2,0c-0.5,0-1-0.1-1.4-0.4c-0.8-0.5-1.3-1.4-1.3-2.3c0-0.9,0.5-1.8,1.3-2.3	c0.4-0.3,0.9-0.4,1.4-0.4l0.2,0c1.4,0.1,2.6,1.3,2.6,2.7C94.6,46.8,93.4,47.9,92,48z" class="st0"/></svg>