<svg xmlns="http://www.w3.org/2000/svg" xmlns:xlink="http://www.w3.org/1999/xlink" id="Layer_1" x="0" y="0" enable-background="new 0 0 777.5 200" version="1.1" viewBox="0 0 777.5 200" xml:space="preserve"><style type="text/css">.st0{fill:#01b1f2}</style><path d="M204,86.6c-0.6,0-1.1,0-1.7,0.1c-7.2-8.4-20.5-15.4-38.9-20.4c5.5-20.7,5.5-37.6,0.1-47.6	c-0.9-1.7-2-3.3-3.2-4.7c-1.3-1.4-2.8-2.6-4.3-3.4c-3.3-1.9-7.2-2.8-11.5-2.5c-1.6,0.1-3.3,0.4-5.3,0.8c-10.8,2.6-23.4,11-36.4,24.3	c-0.6,0.6-1.2,1.2-1.7,1.7c-0.5,0.5-1,1-1.5,1.6c-3.6,3.9-7,7.9-10.3,12l-0.7,0.9c-0.4,0.5-0.9,1.1-1.3,1.6	c-2.2,2.8-4.4,5.8-6.8,9.1c-2.5,0.2-4.9,0.4-7.2,0.7c-1,0.1-2.1,0.2-3,0.4c-0.7,0.1-1.4,0.2-2.1,0.3l-0.9,0.1	c-0.9,0.1-1.7,0.2-2.6,0.4L58,63.3c-1.3,0.2-2.5,0.5-4.1,0.8c-0.6,0.1-1.1,0.3-1.6,0.4c-4.1-15.3-5-28.3-2.7-37.1	c1.4,0.5,2.9,0.7,4.4,0.7c7.4,0,13.6-5.8,14-13c0.1-0.4,0.1-0.7,0.1-1c0-1.5-0.2-3-0.7-4.6C65.3,3.8,60,0,54,0c-7.7,0-14,6.3-14,14	c0,3.1,1,6,2.8,8.4c-3.7,10.3-3.1,25.2,1.7,43.5h-0.1l0.2,0.5C16.2,74,0,86.5,0,100.7c0,14.2,16.2,26.6,44.6,34.3	c-4.5,16.7-5.4,30.8-2.7,41.1c-2.7,2.6-4.2,6.2-4.2,10c0,7.7,6.3,14,14,14c5.3,0,10.1-3,12.5-7.7c0.8-1.5,1.3-3.3,1.5-5.2	c0.1-0.4,0.1-0.8,0.1-1.2c0-7.7-6.3-14-14-14c-0.9,0-1.8,0.1-2.6,0.3c-1.8-9.1-0.5-22.1,3.6-36.9l0.6-2c0.7-2.3,1.4-4.6,2.2-7	l0.6-1.6c1.4-3.9,3-8.1,4.8-12.4c0.3-0.8,0.6-1.5,1-2.3c0.4,0.8,0.8,1.6,1.3,2.4c0.4,0.9,0.9,1.7,1.3,2.5l0.6,1c1,1.8,2,3.6,3.1,5.4	c3.6,6.1,7.4,12.2,11.5,18.2c3.2,4.7,6.5,9.1,9.9,13.3c0.8,1.1,1.7,2.1,2.5,3.1c2.3,2.9,4.8,5.7,7.2,8.3l2,2.1	c0.6,0.6,1.2,1.2,1.7,1.8c20.9,21.3,41,29.8,53.2,22.7c12.6-7.2,15.1-28.2,6.9-57.4c-0.2-0.8-0.4-1.5-0.6-2.3c-0.3-1-0.6-2-0.9-3	l-0.4-1.2c-0.5-1.6-1.1-3.3-1.7-5l-0.4-1c-0.6-1.8-1.3-3.7-2.1-5.6c-0.1-0.3-0.2-0.5-0.4-1l-0.4-1c-0.8-1.9-1.6-3.9-2.4-5.8	c-1-2.2-1.9-4.5-3-6.7c1-2.2,2-4.4,2.9-6.5l0.8-1.9c0.7-1.5,1.3-3,1.9-4.6c0.2-0.6,0.5-1.1,0.6-1.6c0.7-1.9,1.4-3.7,2.1-5.6	c0.7-2.1,1.5-4.3,2.1-6.2c0-0.1,0.1-0.2,0.1-0.3c15.3,4.1,27,9.8,33.5,16.2c-3,2.7-4.7,6.5-4.7,10.5c0,4.7,2.3,9.1,6.3,11.7	c1.6,1,3.3,1.7,5,2c0.9,0.2,1.8,0.3,2.7,0.3c7.7,0,14-6.3,14-14C218.1,92.9,211.8,86.6,204,86.6z M92.9,67.8L92.9,67.8	c6.8-0.6,15.3-0.6,22.2,0c4.5,0.3,8.9,0.9,13.1,1.7c-1.4,4.1-3.1,8.2-5,12.3c-1.5,3.2-3.2,6.5-5.2,9.8c-1.9,3.3-3.9,6.4-5.9,9.3	c-2.6,3.8-5.4,7.3-8.2,10.5c-2.7-3.1-5.4-6.6-8.1-10.5c-2-2.9-4-6-5.9-9.3c-1.8-3.1-3.5-6.4-5.2-9.8c-1.9-4-3.6-8.1-5-12.3	C84,68.7,88.4,68.1,92.9,67.8z M54,8c2.1,0,4,1,5.1,2.8c0.6,0.9,0.9,2,1,3.1l0,0.4c-0.1,3.2-2.8,5.8-6,5.8c-1,0-1.9-0.2-2.9-0.8	c-1.1-0.6-1.9-1.5-2.5-2.7C48.2,15.9,48,15,48,14C48,10.7,50.7,8,54,8z M49.8,180.2L49.8,180.2c0.7-0.2,1.3-0.3,1.9-0.3	c3.3,0,6.1,2.7,6.1,6.1l-0.1,0.7c-0.1,1.2-0.6,2.4-1.5,3.3c-1.1,1.3-2.8,2.1-4.5,2.1c-3.3,0-6.1-2.7-6.1-6.1c0-1.4,0.4-2.6,1.4-3.7	C47.7,181.3,48.7,180.6,49.8,180.2z M56.8,101.8c-1.6,3.5-3.1,7-4.5,10.4l-0.4,0.8c-0.2,0.4-0.4,0.9-0.6,1.4l-0.2,0.4	c-0.4,1.1-0.8,2.1-1.2,3.2l-0.4,1c-0.1,0.3-0.2,0.6-0.3,0.8l-2.5,7.4C22.8,120.9,8,110.7,8,100.7c0-10.1,15-20.3,38.9-26.7l0.9,2.9	c0.3,1,0.7,2.1,1.1,3.1l0.2,0.6c0.6,1.8,1.3,3.7,2.2,5.9c0.8,2.1,1.7,4.3,2.6,6.5l0.5,1.3c0.9,2.1,1.8,4.2,2.9,6.5L56.8,101.8z M151.1,122.2l0.5,1.4c0.4,1.1,0.8,2.1,1.1,3.3c0.7,2.2,1.4,4.3,2,6.4c3.3,11.2,5,21.5,5,29.9c0,10.5-2.7,17.9-7.7,20.7	c-8.7,5.1-24.9-2.7-42.5-20.3c0.2-0.2,0.4-0.4,0.6-0.7l0.9-1c0.8-0.9,1.5-1.7,2.3-2.6l0.3-0.4c5.1-5.9,10.1-12.4,14.9-19.4	c4.1-5.9,7.9-12,11.5-18.2c1.2-2.1,2.3-4.1,3.5-6.2c0.9-1.7,1.9-3.5,2.8-5.2c0.2,0.5,0.4,1,0.7,1.5c0.4,0.9,0.8,1.8,1.1,2.7l0.2,0.4	c0.2,0.4,0.3,0.7,0.5,1.3c0.6,1.5,1.2,2.9,1.7,4.4C150.6,120.9,150.8,121.5,151.1,122.2z M155.7,64.4c-1.9-0.4-3.9-0.8-5.9-1.2	c-2.2-0.4-4.4-0.8-6.6-1.2c-3-0.5-6.1-0.9-9.3-1.2c-2.7-0.3-5.5-0.6-8.4-0.8c-6.6-0.6-13.9-0.9-21.4-0.9c-1.5,0-3,0-4.5,0	c-1.3,0-2.6,0-3.8,0.1c-1.1,0-2.1,0-3,0.1c-0.6,0-1.3,0.1-1.9,0.1c3.5-4.7,7.1-9.2,10.7-13.2l0.1-0.1c0.6-0.7,1.2-1.4,1.9-2.1	c1.1-1.3,2.2-2.4,3.3-3.6l1.5-1.5c11.5-11.7,22.8-19.5,31.8-22.1c1.3-0.4,2.8-0.7,4.2-0.8c3.1-0.3,5.6,0.2,7.7,1.4	c1,0.6,2,1.5,3,2.5c0.8,1,1.6,2.3,2.1,3.5C161,32,160.4,46.9,155.7,64.4z M204.4,106.7l-0.1,0l-0.2,0.1c-1.1,0-2.2-0.3-3.2-0.9	c-1.8-1.2-2.9-3.1-2.9-5.2c0-2.1,1.1-4,2.8-5.1c1-0.6,2.1-0.9,3.1-1l0.4,0.1c3.2,0.1,5.7,2.8,5.7,6	C210.1,103.9,207.6,106.5,204.4,106.7z" class="st0"/><g><polygon points="303.9 87.2 283.9 41.8 275.1 41.8 300.2 98.5 307.4 98.5 332.5 41.8 324 41.8" class="st0"/><path d="M366,77.9c0,8.5-4.7,13.6-12.7,13.6c-7.2,0-11-4.1-11-11.9V55.3h-7.9v24.8c0,11.7,6.9,18.7,18.4,18.7 c5.4,0,10.2-1.9,13.4-5.4v5h7.7V55.3H366V77.9z" class="st0"/><path d="M403.9,55c-12.2,0-21.1,9.2-21.1,21.9c0,12.9,9.3,22,22.6,22c6.9,0,12.8-2.5,16.6-7.1l0.7-0.8l-4.7-5.4l-0.9,1 c-2.8,3.2-6.8,4.9-11.6,4.9c-7.8,0-13.6-4.7-14.7-11.8h33.9v-1.2c0-0.3,0-0.6,0-0.9c0-0.3,0-0.6,0-0.8C424.9,64,416.3,55,403.9,55z M403.9,62.2c6.9,0,12,4.4,13.1,11.1h-26.1C392,66.6,397.1,62.2,403.9,62.2z" class="st0"/><rect width="22.7" height="7.2" x="431.5" y="72.7" class="st0"/><polygon points="473.4 73.4 501.4 73.4 501.4 66.1 473.4 66.1 473.4 49.2 504.8 49.2 504.8 41.8 465.2 41.8 465.2 98.5 506 98.5 506 91.1 473.4 91.1" class="st0"/><rect width="7.9" height="59.9" x="515.9" y="38.6" class="st0"/><path d="M553.7,55c-12.2,0-21.1,9.2-21.1,21.9c0,12.9,9.3,22,22.6,22c6.9,0,12.8-2.5,16.6-7.1l0.7-0.8l-4.7-5.4l-0.9,1 c-2.8,3.2-6.8,4.9-11.6,4.9c-7.8,0-13.6-4.7-14.7-11.8h33.9v-1.2c0-0.3,0-0.6,0-0.9c0-0.3,0-0.6,0-0.8C574.7,64,566.1,55,553.7,55z M553.7,62.2c6.9,0,12,4.4,13.1,11.1h-26.1C541.8,66.6,546.9,62.2,553.7,62.2z" class="st0"/><path d="M612.4,86.1c-2.4,3.5-6.2,5.4-10.8,5.4c-8.5,0-14.2-5.9-14.2-14.7c0-8.6,5.8-14.7,14.2-14.7 c4.6,0,8.4,2,10.8,5.5l0.7,1l6.1-4.1l-0.6-1c-3.4-5.6-9.4-8.6-17-8.6c-12.9,0-22.2,9.2-22.2,21.9c0,12.7,9.3,22,22.2,22 c7.4,0,13.6-3.1,17-8.6l0.6-1l-6.1-4.1L612.4,86.1z" class="st0"/><path d="M647.5,89.9c-1.3,1.1-3.2,1.8-5.2,1.8c-3.9,0-5.8-2.1-5.8-6.2V62.4h12.4v-7.1h-12.4v-8.9h-7.9v8.9h-7.3v7.1 h7.3v23.4c0,8.2,4.9,13.1,13.1,13.1c3.7,0,7.1-1.2,9.4-3.2l0.7-0.6l-3-6.2L647.5,89.9z" class="st0"/><path d="M666.7,60.4v-5.1H659v43.2h7.9v-22c0-8.8,4.6-13.8,12.5-13.8c0.2,0,0.3,0,0.5,0c0.3,0,0.5,0,0.8,0h1.2V55h-1.2 C674.6,55,669.8,56.9,666.7,60.4z" class="st0"/><path d="M706.9,55c-12.7,0-22,9.2-22,21.9c0,12.7,9.2,22,22,22c12.7,0,21.9-9.2,21.9-22C728.8,64.2,719.6,55,706.9,55z M706.9,91.6c-8.2,0-14-6-14-14.7s5.7-14.7,14-14.7c8.2,0,13.9,6,13.9,14.7S715.1,91.6,706.9,91.6z" class="st0"/><path d="M759.6,55c-5.9,0-10.9,1.9-14.3,5.4v-5.1h-7.7v43.2h7.9V75.9c0-8.5,4.9-13.5,13-13.5c7.2,0,11,4.1,11,11.8 v24.3h7.9V73.6C777.5,62,770.8,55,759.6,55z" class="st0"/></g><g><polygon points="456.7 123.2 432 123.2 432 127.8 441.9 127.8 441.9 153.3 446.8 153.3 446.8 127.8 456.7 127.8" class="st0"/><path d="M465.8,130c-6.5,0-11.3,4.9-11.3,11.7c0,6.9,5,11.7,12,11.7c3.7,0,6.8-1.3,8.9-3.8l0.5-0.7l-2.9-3.4l-0.8,0.9 c-1.4,1.6-3.3,2.4-5.7,2.4c-3.7,0-6.4-2.1-7.1-5.3h17.5v-1c0-0.1,0-0.3,0-0.4c0-0.2,0-0.3,0-0.4C477,135,472.3,130,465.8,130z M465.8,134.5c3.2,0,5.6,2,6.3,5h-12.6C460.2,136.5,462.6,134.5,465.8,134.5z" class="st0"/><path d="M508,130c-3.4,0-6.3,1.3-8.2,3.6c-1.6-2.3-4.2-3.6-7.6-3.6c-2.7,0-5,0.8-6.7,2.3v-2.1h-4.7v23h4.8v-12 c0-4.1,2.3-6.6,6-6.6c3.4,0,5.1,1.9,5.1,5.7v12.9h4.8v-12c0-4.2,2.2-6.6,6-6.6c3.3,0,5,1.9,5,5.7v12.9h4.8v-13.2 C517.5,133.8,513.9,130,508,130z" class="st0"/><path d="M535,130c-2.8,0-5.3,0.9-7.1,2.6v-2.4h-4.7V161h4.8v-10c1.9,1.6,4.3,2.5,7,2.5c6.7,0,11.5-4.9,11.5-11.7 C546.5,135,541.7,130,535,130z M541.7,141.7c0,4.2-2.8,7.2-6.8,7.2s-6.8-3-6.8-7.2s2.8-7.2,6.8-7.2S541.7,137.5,541.7,141.7z" class="st0"/><rect width="4.8" height="31.7" x="550.3" y="121.6" class="st0"/><path d="M569.4,130c-3.5,0-6.9,1.1-9.2,3.1l-0.7,0.6l2.3,3.9l0.9-0.8c1.6-1.4,4-2.2,6.3-2.2c3.3,0,5,1.5,5,4.6v0.3 h-5.7c-8.2,0-9.1,4.9-9.1,7c0,4.3,3.5,7.1,8.7,7.1c2.5,0,4.7-0.7,6.2-1.9v1.7h4.7v-14C579,133.3,575.6,130,569.4,130z M568.4,149.2 c-1.3,0-4.3-0.3-4.3-3c0-0.8,0-2.8,4.4-2.8h5.6v2.2C573.1,148,571.2,149.2,568.4,149.2z" class="st0"/><path d="M595.1,148.2c-0.6,0.5-1.5,0.8-2.5,0.8c-1.8,0-2.6-0.9-2.6-2.8v-11.6h6.4v-4.4H590v-4.6h-4.8v4.6h-3.8v4.4h3.8 v11.7c0,4.5,2.7,7.1,7.2,7.1c2,0,3.9-0.6,5.1-1.7l0.6-0.5l-1.9-3.9L595.1,148.2z" class="st0"/><path d="M609.3,130c-6.5,0-11.3,4.9-11.3,11.7c0,6.9,5,11.7,12,11.7c3.7,0,6.8-1.3,8.9-3.8l0.5-0.7l-2.9-3.4l-0.8,0.9 c-1.4,1.6-3.3,2.4-5.7,2.4c-3.7,0-6.4-2.1-7.1-5.3h17.5v-1c0-0.1,0-0.3,0-0.4c0-0.2,0-0.3,0-0.4C620.5,135,615.8,130,609.3,130z M609.3,134.5c3.2,0,5.6,2,6.3,5h-12.6C603.7,136.5,606.2,134.5,609.3,134.5z" class="st0"/></g></svg>