<svg xmlns="http://www.w3.org/2000/svg" xmlns:xlink="http://www.w3.org/1999/xlink" id="Layer_1" x="0" y="0" enable-background="new 0 0 344.2 350" version="1.1" viewBox="0 0 344.2 350" xml:space="preserve"><style type="text/css">.st0{fill:#fff}</style><g><polygon points="19.7 299.4 6.1 268.4 0 268.4 17.2 307.2 22.1 307.2 39.3 268.4 33.5 268.4" class="st0"/><path d="M62.3,293.1c0,5.8-3.2,9.3-8.7,9.3c-4.9,0-7.6-2.8-7.6-8.1v-16.6h-5.4v17c0,8,4.7,12.8,12.6,12.8 c3.7,0,7-1.3,9.2-3.7v3.4h5.3v-29.6h-5.4V293.1z" class="st0"/><path d="M88.3,277.4c-8.4,0-14.5,6.3-14.5,15c0,8.9,6.4,15,15.5,15c4.7,0,8.8-1.7,11.4-4.9l0.5-0.5l-3.2-3.7l-0.6,0.7 c-1.9,2.2-4.7,3.4-7.9,3.4c-5.4,0-9.3-3.2-10.1-8.1h23.2v-0.8c0-0.2,0-0.4,0-0.6c0-0.2,0-0.4,0-0.6 C102.6,283.5,96.7,277.4,88.3,277.4z M88.3,282.3c4.7,0,8.2,3,9,7.6H79.4C80.1,285.3,83.6,282.3,88.3,282.3z" class="st0"/><rect width="15.6" height="4.9" x="107.1" y="289.5" class="st0"/><polygon points="135.9 290 155.1 290 155.1 285 135.9 285 135.9 273.4 157.4 273.4 157.4 268.4 130.3 268.4 130.3 307.2 158.2 307.2 158.2 302.1 135.9 302.1" class="st0"/><rect width="5.4" height="41" x="165" y="266.1" class="st0"/><path d="M190.9,277.4c-8.4,0-14.5,6.3-14.5,15c0,8.9,6.4,15,15.5,15c4.7,0,8.8-1.7,11.4-4.9l0.5-0.5l-3.2-3.7l-0.6,0.7 c-1.9,2.2-4.7,3.4-7.9,3.4c-5.4,0-9.3-3.2-10.1-8.1h23.2v-0.8c0-0.2,0-0.4,0-0.6c0-0.2,0-0.4,0-0.6 C205.3,283.5,199.3,277.4,190.9,277.4z M190.9,282.3c4.7,0,8.2,3,9,7.6H182C182.7,285.3,186.2,282.3,190.9,282.3z" class="st0"/><path d="M231.1,298.7c-1.6,2.4-4.3,3.7-7.4,3.7c-5.8,0-9.7-4-9.7-10c0-5.9,4-10,9.7-10c3.1,0,5.8,1.3,7.4,3.8l0.5,0.7 l4.1-2.8l-0.4-0.7c-2.3-3.8-6.5-5.9-11.6-5.9c-8.8,0-15.2,6.3-15.2,15c0,8.7,6.4,15,15.2,15c5.1,0,9.3-2.2,11.6-5.9l0.4-0.7 l-4.2-2.8L231.1,298.7z" class="st0"/><path d="M255.1,301.3c-0.9,0.8-2.2,1.2-3.6,1.2c-2.7,0-4-1.4-4-4.3v-15.8h8.5v-4.8h-8.5v-6.1h-5.4v6.1h-5v4.8h5v16 c0,5.6,3.4,8.9,9,8.9c2.5,0,4.9-0.8,6.4-2.2l0.5-0.4l-2.1-4.3L255.1,301.3z" class="st0"/><path d="M268.3,281.1v-3.5H263v29.6h5.4v-15c0-6,3.1-9.5,8.6-9.5c0.1,0,0.2,0,0.3,0c0.2,0,0.4,0,0.6,0h0.8v-5.3h-0.8 C273.7,277.4,270.4,278.7,268.3,281.1z" class="st0"/><path d="M295.8,277.4c-8.7,0-15,6.3-15,15c0,8.7,6.3,15,15,15c8.7,0,15-6.3,15-15C310.8,283.7,304.5,277.4,295.8,277.4 z M295.8,302.4c-5.6,0-9.6-4.1-9.6-10s3.9-10,9.6-10c5.6,0,9.5,4.1,9.5,10S301.4,302.4,295.8,302.4z" class="st0"/><path d="M331.9,277.4c-4.1,0-7.5,1.3-9.8,3.7v-3.5h-5.3v29.6h5.4v-15.5c0-5.8,3.3-9.3,8.9-9.3c4.9,0,7.6,2.8,7.6,8.1 v16.6h5.4v-17C344.2,282.2,339.6,277.4,331.9,277.4z" class="st0"/></g><g><polygon points="124.4 324.1 107.5 324.1 107.5 327.3 114.3 327.3 114.3 344.7 117.7 344.7 117.7 327.3 124.4 327.3" class="st0"/><path d="M130.6,328.8c-4.5,0-7.7,3.4-7.7,8c0,4.7,3.4,8,8.3,8c2.5,0,4.7-0.9,6.1-2.6l0.4-0.4l-2-2.3l-0.5,0.6 c-0.9,1.1-2.3,1.7-3.9,1.7c-2.5,0-4.4-1.4-4.9-3.6h12v-0.7c0-0.1,0-0.2,0-0.3c0-0.1,0-0.2,0-0.3 C138.3,332.2,135.1,328.8,130.6,328.8z M130.6,331.8c2.2,0,3.8,1.3,4.3,3.4h-8.6C126.8,333.2,128.5,331.8,130.6,331.8z" class="st0"/><path d="M159.6,328.8c-2.3,0-4.3,0.9-5.6,2.4c-1.1-1.6-2.9-2.4-5.2-2.4c-1.8,0-3.4,0.5-4.6,1.5v-1.4h-3.2v15.8h3.3 v-8.3c0-2.8,1.5-4.5,4.1-4.5c2.3,0,3.5,1.3,3.5,3.9v8.9h3.3v-8.3c0-2.9,1.5-4.5,4.1-4.5c2.3,0,3.5,1.3,3.5,3.9v8.9h3.3v-9 C166.1,331.3,163.7,328.8,159.6,328.8z" class="st0"/><path d="M178.1,328.8c-1.9,0-3.6,0.6-4.9,1.8v-1.6H170V350h3.3v-6.9c1.3,1.1,2.9,1.7,4.8,1.7c4.6,0,7.9-3.4,7.9-8 C186,332.2,182.7,328.8,178.1,328.8z M182.7,336.8c0,2.9-1.9,4.9-4.7,4.9s-4.7-2-4.7-4.9s1.9-4.9,4.7-4.9S182.7,333.9,182.7,336.8z" class="st0"/><rect width="3.3" height="21.7" x="188.6" y="323" class="st0"/><path d="M201.7,328.8c-2.4,0-4.7,0.8-6.3,2.1l-0.4,0.4l1.6,2.7l0.6-0.5c1.1-1,2.7-1.5,4.3-1.5c2.3,0,3.4,1,3.4,3.1v0.2 H201c-5.6,0-6.2,3.3-6.2,4.8c0,2.9,2.4,4.9,5.9,4.9c1.7,0,3.2-0.4,4.3-1.3v1.1h3.2v-9.6C208.2,331,205.9,328.8,201.7,328.8z M201,341.9c-0.9,0-3-0.2-3-2c0-0.6,0-1.9,3-1.9h3.8v1.5C204.2,341.1,202.9,341.9,201,341.9z" class="st0"/><path d="M219.2,341.2c-0.4,0.4-1,0.6-1.7,0.6c-1.2,0-1.8-0.6-1.8-1.9v-7.9h4.4v-3h-4.4v-3.2h-3.3v3.2h-2.6v3h2.6v8 c0,3.1,1.8,4.9,4.9,4.9c1.4,0,2.7-0.4,3.5-1.2l0.4-0.3l-1.3-2.7L219.2,341.2z" class="st0"/><path d="M229,328.8c-4.5,0-7.7,3.4-7.7,8c0,4.7,3.4,8,8.3,8c2.5,0,4.7-0.9,6.1-2.6l0.4-0.4l-2-2.3l-0.5,0.6 c-0.9,1.1-2.3,1.7-3.9,1.7c-2.5,0-4.4-1.4-4.9-3.6h12v-0.7c0-0.1,0-0.2,0-0.3c0-0.1,0-0.2,0-0.3C236.7,332.2,233.4,328.8,229,328.8 z M229,331.8c2.2,0,3.8,1.3,4.3,3.4h-8.6C225.2,333.2,226.8,331.8,229,331.8z" class="st0"/></g><path d="M270.5,89.7c-0.6,0-1.2,0-1.8,0.1c-7.4-8.7-21.3-16-40.2-21.1c5.7-21.5,5.7-38.9,0.1-49.3	c-0.9-1.8-2-3.4-3.3-4.8c-1.3-1.4-2.9-2.7-4.5-3.6c-3.4-2-7.4-2.9-11.9-2.6c-1.6,0.1-3.4,0.4-5.5,0.8c-11.2,2.7-24.2,11.4-37.7,25.1	c-0.6,0.6-1.2,1.2-1.8,1.8c-0.5,0.5-1,1.1-1.6,1.7c-3.7,4-7.3,8.2-10.7,12.5l-0.7,0.9c-0.5,0.6-0.9,1.1-1.3,1.7	c-2.2,2.9-4.5,6-7,9.5c-2.5,0.2-5,0.4-7.5,0.7c-1.1,0.1-2.1,0.2-3.1,0.4c-0.7,0.1-1.4,0.2-2.1,0.3l-1,0.1c-0.9,0.1-1.8,0.2-2.7,0.4	l-7.1,1.2c-1.3,0.2-2.6,0.5-4.2,0.8c-0.6,0.1-1.1,0.3-1.7,0.4c-4.2-15.9-5.2-29.3-2.8-38.4c1.5,0.5,3,0.7,4.6,0.7	c7.7,0,14-6,14.5-13.4c0.1-0.4,0.1-0.7,0.1-1.1c0-1.6-0.2-3.1-0.7-4.7c-2-5.9-7.6-9.8-13.8-9.8c-8,0-14.5,6.5-14.5,14.5	c0,3.2,1,6.2,2.9,8.7c-3.8,10.6-3.2,26.1,1.7,45h-0.1l0.2,0.5C76,76.7,59.2,89.5,59.2,104.2c0,14.7,16.8,27.6,46.2,35.5	c-4.6,17.3-5.6,31.9-2.8,42.5c-2.8,2.7-4.3,6.4-4.3,10.3c0,8,6.5,14.5,14.5,14.5c5.5,0,10.5-3.1,12.9-7.9c0.8-1.5,1.4-3.4,1.5-5.3	c0.1-0.4,0.1-0.8,0.1-1.2c0-8-6.5-14.5-14.5-14.5c-0.9,0-1.8,0.1-2.7,0.3c-1.8-9.4-0.5-22.9,3.7-38.2l0.6-2.1	c0.7-2.4,1.5-4.8,2.3-7.2l0.6-1.7c1.4-4.1,3.1-8.4,4.9-12.8c0.3-0.8,0.7-1.6,1-2.3c0.4,0.8,0.9,1.7,1.3,2.5c0.4,0.9,0.9,1.8,1.4,2.6	l0.6,1.1c1,1.9,2.1,3.7,3.2,5.6c3.7,6.3,7.7,12.7,11.9,18.8c3.3,4.8,6.8,9.5,10.2,13.8c0.9,1.1,1.7,2.2,2.6,3.2	c2.4,3,4.9,5.9,7.5,8.6l2,2.2c0.6,0.6,1.2,1.3,1.8,1.8c21.7,22,42.5,30.9,55.1,23.5c13-7.5,15.6-29.2,7.2-59.4	c-0.2-0.8-0.4-1.5-0.6-2.4c-0.3-1-0.6-2.1-1-3.1l-0.4-1.2c-0.5-1.7-1.1-3.4-1.7-5.2l-0.4-1.1c-0.7-1.9-1.4-3.8-2.2-5.8	c-0.1-0.3-0.2-0.6-0.4-1l-0.4-1c-0.8-2-1.6-4-2.5-6c-1-2.3-2-4.6-3.1-6.9c1.1-2.3,2.1-4.5,3-6.8l0.8-1.9c0.7-1.6,1.3-3.1,2-4.8	c0.2-0.6,0.5-1.2,0.6-1.7c0.8-1.9,1.5-3.8,2.1-5.8c0.8-2.2,1.5-4.4,2.2-6.4c0-0.1,0.1-0.2,0.1-0.3c15.8,4.2,28,10.1,34.7,16.8	c-3.1,2.8-4.8,6.7-4.8,10.9c0,4.9,2.4,9.4,6.5,12.1c1.6,1.1,3.4,1.8,5.1,2.1c0.9,0.2,1.9,0.3,2.8,0.3c8,0,14.5-6.5,14.5-14.5	C285,96.2,278.5,89.7,270.5,89.7z M155.4,70.2L155.4,70.2c7.1-0.6,15.9-0.6,23,0c4.7,0.4,9.2,1,13.6,1.8c-1.5,4.2-3.2,8.5-5.2,12.7	c-1.6,3.4-3.3,6.7-5.3,10.2c-2,3.4-4,6.7-6.1,9.7c-2.7,3.9-5.6,7.6-8.5,10.9c-2.8-3.2-5.6-6.9-8.4-10.9c-2.1-3-4.1-6.2-6.1-9.7	c-1.9-3.2-3.7-6.6-5.3-10.2c-2-4.1-3.7-8.4-5.2-12.7C146.2,71.1,150.7,70.5,155.4,70.2z M115.1,8.2c2.2,0,4.1,1.1,5.3,2.9	c0.6,1,1,2,1,3.2l0,0.5c-0.1,3.3-2.9,6-6.2,6c-1.1,0-2-0.3-3-0.8c-1.1-0.6-2-1.5-2.6-2.8c-0.4-0.8-0.7-1.7-0.7-2.7	C108.8,11.1,111.6,8.2,115.1,8.2z M110.8,186.6L110.8,186.6c0.7-0.3,1.3-0.4,2-0.4c3.5,0,6.3,2.8,6.3,6.3l-0.1,0.7	c-0.1,1.3-0.6,2.5-1.5,3.4c-1.2,1.4-2.9,2.2-4.7,2.2c-3.5,0-6.3-2.8-6.3-6.3c0-1.4,0.5-2.7,1.4-3.9	C108.6,187.7,109.6,187,110.8,186.6z M118,105.4c-1.7,3.6-3.2,7.2-4.7,10.8l-0.4,0.9c-0.2,0.5-0.4,0.9-0.6,1.4l-0.2,0.4	c-0.4,1.1-0.8,2.2-1.3,3.3l-0.4,1c-0.1,0.3-0.2,0.6-0.3,0.8l-2.6,7.7c-24.9-6.7-40.2-17.2-40.2-27.6c0-10.5,15.5-21,40.2-27.7l1,3	c0.4,1.1,0.7,2.2,1.1,3.3l0.2,0.6c0.7,1.9,1.4,3.8,2.3,6.1c0.9,2.2,1.8,4.4,2.7,6.7l0.5,1.3c0.9,2.2,1.9,4.3,3,6.7L118,105.4z M215.6,126.5l0.5,1.4c0.4,1.1,0.8,2.2,1.1,3.4c0.7,2.2,1.5,4.5,2.1,6.7c3.4,11.6,5.2,22.3,5.2,30.9c0,10.9-2.8,18.5-7.9,21.5	c-9,5.2-25.7-2.8-44-21c0.2-0.2,0.4-0.5,0.6-0.7l0.9-1c0.8-0.9,1.5-1.8,2.3-2.7l0.3-0.4c5.2-6.1,10.4-12.8,15.4-20.1	c4.2-6.1,8.2-12.4,11.9-18.8c1.2-2.1,2.4-4.3,3.6-6.4c1-1.8,1.9-3.6,2.9-5.4c0.2,0.5,0.5,1.1,0.7,1.6c0.4,1,0.8,1.9,1.2,2.8l0.2,0.4	c0.2,0.4,0.3,0.8,0.5,1.3c0.7,1.5,1.2,3,1.8,4.5C215.1,125.2,215.4,125.8,215.6,126.5z M220.4,66.7c-2-0.5-4.1-0.9-6.1-1.2	c-2.2-0.4-4.5-0.8-6.8-1.2c-3.1-0.5-6.4-0.9-9.6-1.3c-2.8-0.3-5.7-0.6-8.7-0.9c-6.8-0.6-14.4-0.9-22.1-0.9c-1.5,0-3.1,0-4.6,0	c-1.3,0-2.7,0-4,0.1c-1.1,0-2.2,0-3.2,0.1c-0.7,0-1.3,0.1-2,0.1c3.6-4.9,7.3-9.5,11.1-13.7l0.1-0.1c0.6-0.7,1.2-1.4,1.9-2.2	c1.2-1.3,2.3-2.5,3.4-3.7l1.5-1.6c11.9-12.1,23.6-20.2,32.9-22.9c1.4-0.4,2.9-0.7,4.3-0.8c3.2-0.3,5.8,0.2,8,1.5	c1.1,0.6,2.1,1.5,3.1,2.6c0.9,1.1,1.6,2.3,2.2,3.7C225.9,33.2,225.3,48.5,220.4,66.7z M270.8,110.5l-0.1,0l-0.2,0.1	c-1.1,0-2.3-0.3-3.3-0.9c-1.8-1.2-3-3.2-3-5.3c0-2.2,1.1-4.2,2.9-5.3c1-0.6,2.2-1,3.2-1l0.5,0.1c3.3,0.1,5.9,2.9,5.9,6.2	C276.8,107.6,274.1,110.3,270.8,110.5z" class="st0"/></svg>